<svg width="800" height="900" viewBox="0 0 800 900" fill="none" xmlns="http://www.w3.org/2000/svg">
  <rect width="800" height="900" fill="#E5E7EB"/>
  <path d="M0 740C200 690 360 690 800 740V900H0V740Z" fill="#F2D7D2"/>
  <rect x="210" y="800" width="380" height="16" rx="8" fill="#B9C0C8"/>
  <g opacity="0.92">
    <path d="M470 154C520 154 560 194 560 244V445C560 510 520 560 470 560C420 560 380 510 380 445V244C380 194 420 154 470 154Z" fill="#111827"/>
    <path d="M404 424C405 404 419 388 439 380C455 374 473 375 488 385C503 394 512 409 512 426C512 460 488 488 456 488C423 488 401 460 404 424Z" fill="#0B0F19"/>
    <path d="M370 214C375 182 405 156 440 150C476 144 514 160 532 191C541 207 544 223 544 238C544 246 538 252 530 252H392C381 252 368 241 370 214Z" fill="#0B0F19"/>
  </g>
  <g>
    <circle cx="420" cy="560" r="128" fill="#C7EA2D"/>
    <circle cx="420" cy="560" r="120" fill="#C7EA2D" stroke="#111827" stroke-width="2"/>
    <line x1="420" y1="560" x2="478" y2="520" stroke="#111827" stroke-width="4" stroke-linecap="round"/>
    <line x1="420" y1="560" x2="374" y2="600" stroke="#111827" stroke-width="4" stroke-linecap="round"/>
    <circle cx="420" cy="560" r="6" fill="#111827"/>
    <g fill="#111827" font-family="ui-sans-serif, system-ui" font-size="20" font-weight="700">
      <text x="410" y="470">12</text>
      <text x="510" y="565">3</text>
      <text x="415" y="675">6</text>
      <text x="320" y="565">9</text>
    </g>
  </g>
</svg>


